<svg width="18" height="19" viewBox="0 0 18 19" fill="none" xmlns="http://www.w3.org/2000/svg">
<path d="M1.49219 15.5781C1.49219 16.7627 2.28027 17.7266 3.25 17.7266C3.46499 17.7224 3.67689 17.6745 3.87281 17.5859C4.06872 17.4972 4.24457 17.3697 4.38965 17.2109C4.49826 17.1038 4.64436 17.0433 4.7969 17.0422C4.94943 17.0411 5.09638 17.0996 5.20651 17.2051C5.31663 17.3107 5.38126 17.455 5.38664 17.6074C5.39203 17.7599 5.33775 17.9084 5.23535 18.0215C4.98159 18.2952 4.6746 18.5141 4.3332 18.6649C3.9918 18.8157 3.6232 18.8952 3.25 18.8984C1.63477 18.8984 0.320312 17.4092 0.320312 15.5781C0.320312 13.7471 1.63477 12.2578 3.25 12.2578C3.62335 12.2613 3.99203 12.3411 4.33344 12.4922C4.67484 12.6434 4.98176 12.8627 5.23535 13.1367C5.33775 13.2498 5.39203 13.3983 5.38664 13.5508C5.38126 13.7032 5.31663 13.8475 5.20651 13.9531C5.09638 14.0586 4.94943 14.1171 4.7969 14.116C4.64436 14.1149 4.49826 14.0544 4.38965 13.9473C4.24477 13.7881 4.06901 13.6602 3.87308 13.5712C3.67715 13.4822 3.46515 13.4341 3.25 13.4297C2.28027 13.4297 1.49219 14.3926 1.49219 15.5781ZM9.40723 14.917C8.34668 14.6113 8.09766 14.459 8.1377 14.1445C8.1433 14.0458 8.17159 13.9497 8.22037 13.8636C8.26915 13.7776 8.3371 13.704 8.41895 13.6484C8.96582 13.2783 10.1436 13.4707 10.5137 13.5664C10.6625 13.602 10.8194 13.578 10.9508 13.4994C11.0821 13.4209 11.1776 13.294 11.2166 13.146C11.2556 12.998 11.2352 12.8406 11.1597 12.7075C11.0842 12.5743 10.9596 12.476 10.8125 12.4336C10.6172 12.3818 8.84961 11.9453 7.76465 12.6758C7.54435 12.825 7.3595 13.0207 7.22316 13.2492C7.08681 13.4777 7.0023 13.7333 6.97559 13.998C6.7998 15.3838 8.17285 15.7803 9.08203 16.043C10.2656 16.3848 10.5254 16.5635 10.4688 16.9961C10.4637 17.0998 10.4346 17.2009 10.3838 17.2914C10.3329 17.3819 10.2617 17.4594 10.1758 17.5176C9.62793 17.8818 8.46875 17.6777 8.10645 17.5781C7.96132 17.5481 7.81022 17.5742 7.68357 17.6512C7.55692 17.7281 7.46414 17.8502 7.4239 17.9928C7.38366 18.1355 7.39896 18.288 7.46672 18.4198C7.53448 18.5516 7.64966 18.6529 7.78906 18.7031C8.25691 18.8278 8.73851 18.8934 9.22266 18.8984C9.75879 18.8984 10.3496 18.8057 10.8203 18.4941C11.0467 18.3431 11.2368 18.1439 11.3771 17.9107C11.5174 17.6776 11.6044 17.4162 11.6318 17.1455C11.8281 15.6162 10.3711 15.1953 9.40723 14.916V14.917ZM17.5127 12.292C17.4402 12.2661 17.3634 12.2547 17.2865 12.2585C17.2097 12.2623 17.1343 12.2812 17.0648 12.3141C16.9952 12.347 16.9328 12.3933 16.8812 12.4503C16.8295 12.5074 16.7896 12.574 16.7637 12.6465L15.3594 16.5693L13.958 12.6484C13.9351 12.5726 13.897 12.5022 13.846 12.4415C13.7951 12.3808 13.7324 12.3311 13.6617 12.2953C13.591 12.2595 13.5138 12.2385 13.4347 12.2334C13.3556 12.2283 13.2763 12.2393 13.2017 12.2658C13.127 12.2922 13.0584 12.3335 13.0001 12.3872C12.9419 12.4409 12.8951 12.5059 12.8626 12.5781C12.8302 12.6504 12.8127 12.7285 12.8113 12.8078C12.8099 12.887 12.8246 12.9657 12.8545 13.0391L14.8076 18.5078C14.8483 18.6216 14.9231 18.72 15.0219 18.7896C15.1207 18.8592 15.2385 18.8966 15.3594 18.8966C15.4802 18.8966 15.5981 18.8592 15.6969 18.7896C15.7956 18.72 15.8705 18.6216 15.9111 18.5078L17.8643 13.0391C17.9162 12.8926 17.9078 12.7315 17.841 12.5912C17.7741 12.4509 17.6543 12.3429 17.5078 12.291L17.5127 12.292ZM17.8984 6.59375V8.9375C17.8984 9.0929 17.8367 9.24194 17.7268 9.35182C17.6169 9.4617 17.4679 9.52344 17.3125 9.52344C17.1571 9.52344 17.0081 9.4617 16.8982 9.35182C16.7883 9.24194 16.7266 9.0929 16.7266 8.9375V7.17969H11.8438C11.6883 7.17969 11.5393 7.11795 11.4294 7.00807C11.3195 6.89819 11.2578 6.74915 11.2578 6.59375V1.71094H2.46875C2.41695 1.71094 2.36727 1.73151 2.33064 1.76814C2.29401 1.80477 2.27344 1.85445 2.27344 1.90625V8.9375C2.27344 9.0929 2.21171 9.24194 2.10182 9.35182C1.99194 9.4617 1.8429 9.52344 1.6875 9.52344C1.5321 9.52344 1.38306 9.4617 1.27318 9.35182C1.16329 9.24194 1.10156 9.0929 1.10156 8.9375V1.90625C1.10156 1.54365 1.24561 1.1959 1.502 0.939503C1.7584 0.683105 2.10615 0.539063 2.46875 0.539062H11.8438C11.9991 0.539199 12.148 0.601022 12.2578 0.710938L17.7266 6.17969C17.8365 6.28947 17.8983 6.4384 17.8984 6.59375ZM15.8975 6.00781L12.4297 2.53906V6.00781H15.8975Z" fill="white"/>
</svg>
