<svg width="19" height="21" viewBox="0 0 19 21" fill="none" xmlns="http://www.w3.org/2000/svg">
<path opacity="0.2" d="M17.3125 5.03125V15.9688C17.3125 16.176 17.2302 16.3747 17.0837 16.5212C16.9372 16.6677 16.7385 16.75 16.5312 16.75H14.1875V8.15625L10.2812 4.25H4.8125V1.90625C4.8125 1.69905 4.89481 1.50034 5.04132 1.35382C5.18784 1.20731 5.38655 1.125 5.59375 1.125H13.4062L17.3125 5.03125Z" fill="white"/>
<path d="M17.8652 4.47852L13.959 0.572266C13.8864 0.499739 13.8002 0.442228 13.7054 0.403019C13.6105 0.363809 13.5089 0.34367 13.4062 0.34375H5.59375C5.17935 0.34375 4.78192 0.50837 4.4889 0.801396C4.19587 1.09442 4.03125 1.49185 4.03125 1.90625V3.46875H2.46875C2.05435 3.46875 1.65692 3.63337 1.3639 3.9264C1.07087 4.21942 0.90625 4.61685 0.90625 5.03125V19.0938C0.90625 19.5082 1.07087 19.9056 1.3639 20.1986C1.65692 20.4916 2.05435 20.6562 2.46875 20.6562H13.4062C13.8207 20.6562 14.2181 20.4916 14.5111 20.1986C14.8041 19.9056 14.9688 19.5082 14.9688 19.0938V17.5312H16.5312C16.9457 17.5312 17.3431 17.3666 17.6361 17.0736C17.9291 16.7806 18.0938 16.3832 18.0938 15.9688V5.03125C18.0938 4.92863 18.0737 4.82699 18.0345 4.73215C17.9953 4.63731 17.9378 4.55112 17.8652 4.47852ZM13.4062 19.0938H2.46875V5.03125H9.95801L13.4062 8.47949V19.0938ZM16.5312 15.9688H14.9688V8.15625C14.9688 8.05362 14.9487 7.95199 14.9095 7.85715C14.8703 7.76231 14.8128 7.67612 14.7402 7.60352L10.834 3.69727C10.7614 3.62474 10.6752 3.56723 10.5804 3.52802C10.4855 3.48881 10.3839 3.46867 10.2812 3.46875H5.59375V1.90625H13.083L16.5312 5.35449V15.9688ZM11.0625 12.8438C11.0625 13.051 10.9802 13.2497 10.8337 13.3962C10.6872 13.5427 10.4885 13.625 10.2812 13.625H5.59375C5.38655 13.625 5.18784 13.5427 5.04132 13.3962C4.89481 13.2497 4.8125 13.051 4.8125 12.8438C4.8125 12.6365 4.89481 12.4378 5.04132 12.2913C5.18784 12.1448 5.38655 12.0625 5.59375 12.0625H10.2812C10.4885 12.0625 10.6872 12.1448 10.8337 12.2913C10.9802 12.4378 11.0625 12.6365 11.0625 12.8438ZM11.0625 15.9688C11.0625 16.176 10.9802 16.3747 10.8337 16.5212C10.6872 16.6677 10.4885 16.75 10.2812 16.75H5.59375C5.38655 16.75 5.18784 16.6677 5.04132 16.5212C4.89481 16.3747 4.8125 16.176 4.8125 15.9688C4.8125 15.7615 4.89481 15.5628 5.04132 15.4163C5.18784 15.2698 5.38655 15.1875 5.59375 15.1875H10.2812C10.4885 15.1875 10.6872 15.2698 10.8337 15.4163C10.9802 15.5628 11.0625 15.7615 11.0625 15.9688Z" fill="white"/>
</svg>
