<svg width="21" height="17" viewBox="0 0 21 17" fill="none" xmlns="http://www.w3.org/2000/svg">
<path d="M19.875 0.882812H1.125C0.9696 0.882812 0.820564 0.944545 0.71068 1.05443C0.600795 1.16431 0.539062 1.31335 0.539062 1.46875V14.75C0.539062 15.1126 0.683105 15.4604 0.939503 15.7167C1.1959 15.9731 1.54365 16.1172 1.90625 16.1172H19.0938C19.4564 16.1172 19.8041 15.9731 20.0605 15.7167C20.3169 15.4604 20.4609 15.1126 20.4609 14.75V1.46875C20.4609 1.31335 20.3992 1.16431 20.2893 1.05443C20.1794 0.944545 20.0304 0.882812 19.875 0.882812ZM18.3691 2.05469L10.5 9.26758L2.63086 2.05469H18.3691ZM19.0938 14.9453H1.90625C1.85445 14.9453 1.80477 14.9247 1.76814 14.8881C1.73151 14.8515 1.71094 14.8018 1.71094 14.75V2.80078L10.1094 10.4941C10.2174 10.593 10.3585 10.6478 10.5049 10.6478C10.6513 10.6478 10.7924 10.593 10.9004 10.4941L19.2891 2.80078V14.75C19.2891 14.8018 19.2685 14.8515 19.2319 14.8881C19.1952 14.9247 19.1455 14.9453 19.0938 14.9453Z" fill="white"/>
</svg>
