<svg width="18" height="19" viewBox="0 0 18 19" fill="none" xmlns="http://www.w3.org/2000/svg">
<path d="M17.6797 12.8438C17.6797 12.9992 17.618 13.1482 17.5081 13.2581C17.3982 13.368 17.2492 13.4297 17.0938 13.4297H14.5547V15.3828H16.3125C16.4679 15.3828 16.6169 15.4445 16.7268 15.5544C16.8367 15.6643 16.8984 15.8133 16.8984 15.9688C16.8984 16.1242 16.8367 16.2732 16.7268 16.3831C16.6169 16.493 16.4679 16.5547 16.3125 16.5547H14.5547V18.3125C14.5547 18.4679 14.493 18.6169 14.3831 18.7268C14.2732 18.8367 14.1242 18.8984 13.9688 18.8984C13.8133 18.8984 13.6643 18.8367 13.5544 18.7268C13.4445 18.6169 13.3828 18.4679 13.3828 18.3125V12.8438C13.3828 12.6883 13.4445 12.5393 13.5544 12.4294C13.6643 12.3195 13.8133 12.2578 13.9688 12.2578H17.0938C17.2492 12.2578 17.3982 12.3195 17.5081 12.4294C17.618 12.5393 17.6797 12.6883 17.6797 12.8438ZM4.78906 14.7969C4.78906 15.4703 4.52155 16.1161 4.04539 16.5923C3.56922 17.0684 2.9234 17.3359 2.25 17.3359H1.27344V18.3125C1.27344 18.4679 1.21171 18.6169 1.10182 18.7268C0.991936 18.8367 0.8429 18.8984 0.6875 18.8984C0.5321 18.8984 0.383064 18.8367 0.27318 18.7268C0.163295 18.6169 0.101563 18.4679 0.101562 18.3125V12.8438C0.101562 12.6883 0.163295 12.5393 0.27318 12.4294C0.383064 12.3195 0.5321 12.2578 0.6875 12.2578H2.25C2.9234 12.2578 3.56922 12.5253 4.04539 13.0015C4.52155 13.4777 4.78906 14.1235 4.78906 14.7969ZM3.61719 14.7969C3.61719 14.4343 3.47315 14.0865 3.21675 13.8301C2.96035 13.5737 2.6126 13.4297 2.25 13.4297H1.27344V16.1641H2.25C2.6126 16.1641 2.96035 16.02 3.21675 15.7636C3.47315 15.5072 3.61719 15.1595 3.61719 14.7969ZM11.8203 15.5781C11.8203 16.4587 11.4705 17.3033 10.8478 17.9259C10.2251 18.5486 9.3806 18.8984 8.5 18.8984H6.9375C6.7821 18.8984 6.63306 18.8367 6.52318 18.7268C6.4133 18.6169 6.35156 18.4679 6.35156 18.3125V12.8438C6.35156 12.6883 6.4133 12.5393 6.52318 12.4294C6.63306 12.3195 6.7821 12.2578 6.9375 12.2578H8.5C9.3806 12.2578 10.2251 12.6076 10.8478 13.2303C11.4705 13.853 11.8203 14.6975 11.8203 15.5781ZM10.6484 15.5781C10.6484 15.0083 10.4221 14.4619 10.0192 14.059C9.61626 13.656 9.0698 13.4297 8.5 13.4297H7.52344V17.7266H8.5C9.0698 17.7266 9.61626 17.5002 10.0192 17.0973C10.4221 16.6944 10.6484 16.1479 10.6484 15.5781ZM0.101562 8.9375V1.90625C0.101563 1.54365 0.245605 1.1959 0.502003 0.939503C0.7584 0.683105 1.10615 0.539063 1.46875 0.539063H10.8438C10.9208 0.539002 10.9972 0.554153 11.0684 0.583646C11.1396 0.613139 11.2043 0.656396 11.2588 0.710938L16.7275 6.17969C16.8371 6.28963 16.8986 6.43854 16.8984 6.59375V8.9375C16.8984 9.0929 16.8367 9.24194 16.7268 9.35182C16.6169 9.4617 16.4679 9.52344 16.3125 9.52344C16.1571 9.52344 16.0081 9.4617 15.8982 9.35182C15.7883 9.24194 15.7266 9.0929 15.7266 8.9375V7.17969H10.8438C10.6883 7.17969 10.5393 7.11795 10.4294 7.00807C10.3195 6.89819 10.2578 6.74915 10.2578 6.59375V1.71094H1.46875C1.41695 1.71094 1.36727 1.73152 1.33064 1.76814C1.29401 1.80477 1.27344 1.85445 1.27344 1.90625V8.9375C1.27344 9.0929 1.21171 9.24194 1.10182 9.35182C0.991936 9.4617 0.8429 9.52344 0.6875 9.52344C0.5321 9.52344 0.383064 9.4617 0.27318 9.35182C0.163295 9.24194 0.101563 9.0929 0.101562 8.9375ZM11.4297 6.00781H14.8984L11.4297 2.53906V6.00781Z" fill="white"/>
</svg>
