<svg width="21" height="22" viewBox="0 0 21 22" fill="none" xmlns="http://www.w3.org/2000/svg">
<path d="M19.0938 2.90625H11.2812V1.34375C11.2812 1.13655 11.1989 0.937836 11.0524 0.791323C10.9059 0.64481 10.7072 0.5625 10.5 0.5625C10.2928 0.5625 10.0941 0.64481 9.94757 0.791323C9.80106 0.937836 9.71875 1.13655 9.71875 1.34375V2.90625H1.90625C1.49185 2.90625 1.09442 3.07087 0.801396 3.3639C0.50837 3.65692 0.34375 4.05435 0.34375 4.46875V16.1875C0.34375 16.6019 0.50837 16.9993 0.801396 17.2924C1.09442 17.5854 1.49185 17.75 1.90625 17.75H5.75L3.63965 20.3867C3.51015 20.5486 3.45026 20.7553 3.47315 20.9613C3.49604 21.1674 3.59984 21.3559 3.76172 21.4854C3.92359 21.6149 4.13028 21.6747 4.33632 21.6519C4.54235 21.629 4.73085 21.5252 4.86035 21.3633L7.75 17.75H13.25L16.1396 21.3633C16.2038 21.4434 16.2831 21.5102 16.373 21.5597C16.4629 21.6092 16.5617 21.6405 16.6637 21.6519C16.7657 21.6632 16.869 21.6543 16.9675 21.6257C17.0661 21.5972 17.1581 21.5495 17.2383 21.4854C17.3184 21.4212 17.3852 21.3419 17.4347 21.252C17.4842 21.1621 17.5155 21.0633 17.5269 20.9613C17.5382 20.8593 17.5293 20.7561 17.5007 20.6575C17.4722 20.5589 17.4245 20.4669 17.3604 20.3867L15.25 17.75H19.0938C19.5082 17.75 19.9056 17.5854 20.1986 17.2924C20.4916 16.9993 20.6562 16.6019 20.6562 16.1875V4.46875C20.6562 4.05435 20.4916 3.65692 20.1986 3.3639C19.9056 3.07087 19.5082 2.90625 19.0938 2.90625ZM8.15625 13.0625C8.15625 13.2697 8.07394 13.4684 7.92743 13.6149C7.78091 13.7614 7.5822 13.8438 7.375 13.8438C7.1678 13.8438 6.96909 13.7614 6.82257 13.6149C6.67606 13.4684 6.59375 13.2697 6.59375 13.0625V10.7188C6.59375 10.5115 6.67606 10.3128 6.82257 10.1663C6.96909 10.0198 7.1678 9.9375 7.375 9.9375C7.5822 9.9375 7.78091 10.0198 7.92743 10.1663C8.07394 10.3128 8.15625 10.5115 8.15625 10.7188V13.0625ZM11.2812 13.0625C11.2812 13.2697 11.1989 13.4684 11.0524 13.6149C10.9059 13.7614 10.7072 13.8438 10.5 13.8438C10.2928 13.8438 10.0941 13.7614 9.94757 13.6149C9.80106 13.4684 9.71875 13.2697 9.71875 13.0625V9.15625C9.71875 8.94905 9.80106 8.75034 9.94757 8.60382C10.0941 8.45731 10.2928 8.375 10.5 8.375C10.7072 8.375 10.9059 8.45731 11.0524 8.60382C11.1989 8.75034 11.2812 8.94905 11.2812 9.15625V13.0625ZM14.4062 13.0625C14.4062 13.2697 14.3239 13.4684 14.1774 13.6149C14.0309 13.7614 13.8322 13.8438 13.625 13.8438C13.4178 13.8438 13.2191 13.7614 13.0726 13.6149C12.9261 13.4684 12.8438 13.2697 12.8438 13.0625V7.59375C12.8438 7.38655 12.9261 7.18784 13.0726 7.04132C13.2191 6.89481 13.4178 6.8125 13.625 6.8125C13.8322 6.8125 14.0309 6.89481 14.1774 7.04132C14.3239 7.18784 14.4062 7.38655 14.4062 7.59375V13.0625Z" fill="#444444"/>
</svg>
