<svg width="21" height="23" viewBox="0 0 21 23" fill="none" xmlns="http://www.w3.org/2000/svg">
<path d="M17.7158 3.33783C16.297 1.91067 14.4864 0.936824 12.5135 0.539705C10.5406 0.142587 8.49426 0.340067 6.63373 1.10712C4.7732 1.87418 3.18225 3.17628 2.06248 4.84842C0.942715 6.52057 0.344537 8.48749 0.34375 10.4999V15.9687C0.34375 16.5903 0.59068 17.1864 1.03022 17.626C1.46976 18.0655 2.0659 18.3124 2.6875 18.3124H4.25C4.8716 18.3124 5.46774 18.0655 5.90728 17.626C6.34682 17.1864 6.59375 16.5903 6.59375 15.9687V12.0624C6.59375 11.4408 6.34682 10.8447 5.90728 10.4052C5.46774 9.96561 4.8716 9.71868 4.25 9.71868H1.94141C2.09207 8.08971 2.70394 6.53744 3.7053 5.24379C4.70665 3.95014 6.05601 2.96871 7.59521 2.41455C9.13442 1.86038 10.7997 1.75643 12.3959 2.11488C13.992 2.47333 15.453 3.27933 16.6074 4.43841C18.0184 5.85667 18.8864 7.72558 19.0596 9.71868H16.75C16.1284 9.71868 15.5323 9.96561 15.0927 10.4052C14.6532 10.8447 14.4062 11.4408 14.4062 12.0624V15.9687C14.4062 16.5903 14.6532 17.1864 15.0927 17.626C15.5323 18.0655 16.1284 18.3124 16.75 18.3124H19.0938C19.0938 18.934 18.8468 19.5302 18.4073 19.9697C17.9677 20.4093 17.3716 20.6562 16.75 20.6562H11.2812C11.074 20.6562 10.8753 20.7385 10.7288 20.885C10.5823 21.0315 10.5 21.2302 10.5 21.4374C10.5 21.6446 10.5823 21.8433 10.7288 21.9899C10.8753 22.1364 11.074 22.2187 11.2812 22.2187H16.75C17.786 22.2187 18.7796 21.8071 19.5121 21.0746C20.2447 20.342 20.6562 19.3484 20.6562 18.3124V10.4999C20.6613 9.17139 20.4042 7.85491 19.8997 6.6259C19.3951 5.3969 18.653 4.27953 17.7158 3.33783ZM4.25 11.2812C4.4572 11.2812 4.65591 11.3635 4.80243 11.51C4.94894 11.6565 5.03125 11.8552 5.03125 12.0624V15.9687C5.03125 16.1759 4.94894 16.3746 4.80243 16.5211C4.65591 16.6676 4.4572 16.7499 4.25 16.7499H2.6875C2.4803 16.7499 2.28159 16.6676 2.13507 16.5211C1.98856 16.3746 1.90625 16.1759 1.90625 15.9687V11.2812H4.25ZM16.75 16.7499C16.5428 16.7499 16.3441 16.6676 16.1976 16.5211C16.0511 16.3746 15.9688 16.1759 15.9688 15.9687V12.0624C15.9688 11.8552 16.0511 11.6565 16.1976 11.51C16.3441 11.3635 16.5428 11.2812 16.75 11.2812H19.0938V16.7499H16.75Z" fill="white"/>
</svg>
